<svg width="781" height="139" viewBox="0 0 781 139" fill="none" xmlns="http://www.w3.org/2000/svg">
<path d="M54.1377 137.9C52.4476 138.005 50.7178 138.06 48.9482 138.06C39.1083 138.06 30.4683 136.38 23.0283 133.02C15.7084 129.66 10.0087 124.92 5.92871 118.8C3.69968 115.287 2.09739 111.452 1.12305 107.293L54.1377 137.9ZM207.994 42.8398C216.754 42.8399 224.134 44.3996 230.134 47.5195C236.254 50.6395 240.874 55.2002 243.994 61.2002C247.234 67.2001 248.854 74.5204 248.854 83.1602V135.72H224.374L222.574 123.84C221.134 127.92 217.713 131.34 212.313 134.1C207.034 136.74 201.033 138.06 194.313 138.06C184.834 138.06 177.274 135.479 171.634 130.319C166.114 125.039 163.354 118.02 163.354 109.26C163.354 100.98 166.174 94.3799 171.813 89.46C177.573 84.54 185.854 81.6594 196.653 80.8193L221.854 78.8398V77.3994C221.853 74.3996 221.254 71.9395 220.054 70.0195C218.854 67.9797 217.114 66.4795 214.834 65.5195C212.674 64.4395 209.914 63.8994 206.554 63.8994C200.674 63.8994 196.174 64.9797 193.054 67.1396C190.054 69.2997 188.554 72.42 188.554 76.5H165.514C165.514 69.6601 167.253 63.7197 170.733 58.6797C174.213 53.6397 179.134 49.7395 185.494 46.9795C191.974 44.2196 199.474 42.8398 207.994 42.8398ZM299.155 42.8398C312.475 42.8398 323.276 46.2596 331.556 53.0996C339.836 59.9396 344.395 69.2401 345.235 81H317.335C316.375 76.44 314.455 73.0799 311.575 70.9199C308.815 68.7599 305.035 67.6797 300.235 67.6797C296.395 67.6797 292.976 68.6397 289.976 70.5596C287.096 72.3596 284.875 74.9398 283.315 78.2998C281.755 81.6597 280.976 85.6795 280.976 90.3594C280.976 95.1593 281.696 99.2993 283.136 102.779C284.696 106.139 286.855 108.72 289.615 110.52C292.495 112.319 295.915 113.22 299.875 113.22C304.795 113.22 308.695 112.139 311.575 109.979C314.575 107.699 316.495 104.339 317.335 99.8994H345.235C344.635 107.459 342.295 114.12 338.215 119.88C334.255 125.52 328.975 129.96 322.375 133.2C315.775 136.44 308.275 138.06 299.875 138.06C290.395 138.06 282.115 136.08 275.035 132.12C268.075 128.16 262.675 122.64 258.835 115.56C254.995 108.36 253.075 99.9593 253.075 90.3594C253.075 81.1195 255.056 72.9598 259.016 65.8799C262.976 58.68 268.375 53.0399 275.215 48.96C282.175 44.88 290.155 42.8399 299.155 42.8398ZM476.673 42.8398C489.993 42.8398 500.793 46.2597 509.073 53.0996C517.353 59.9396 521.913 69.24 522.753 81H494.854C493.894 76.4402 491.974 73.0799 489.094 70.9199C486.334 68.7599 482.553 67.6797 477.753 67.6797C473.913 67.6797 470.493 68.6396 467.493 70.5596C464.613 72.3596 462.393 74.9398 460.833 78.2998C459.273 81.6597 458.493 85.6796 458.493 90.3594C458.493 95.1592 459.213 99.2994 460.653 102.779C462.213 106.139 464.373 108.72 467.133 110.52C470.013 112.32 473.434 113.22 477.394 113.22C482.313 113.22 486.214 112.139 489.094 109.979C492.094 107.7 494.014 104.339 494.854 99.8994H522.753C522.153 107.459 519.813 114.12 515.733 119.88C511.773 125.52 506.494 129.96 499.894 133.2C493.294 136.44 485.793 138.06 477.394 138.06C467.914 138.06 459.634 136.08 452.554 132.12C445.594 128.16 440.194 122.64 436.354 115.56C432.514 108.36 430.594 99.9594 430.594 90.3594C430.594 81.1196 432.573 72.9598 436.533 65.8799C440.493 58.6799 445.893 53.04 452.733 48.96C459.693 44.88 467.673 42.8399 476.673 42.8398ZM571.954 42.8398C581.434 42.8399 589.594 44.8195 596.434 48.7793C603.274 52.6193 608.553 58.1399 612.273 65.3398C615.993 72.4198 617.854 80.8797 617.854 90.7197V97.7393L552.451 98.043C553.167 102.937 554.688 106.796 557.014 109.62C560.494 113.58 565.834 115.56 573.034 115.56C578.314 115.56 582.694 114.659 586.174 112.859C589.654 111.059 591.874 108.54 592.834 105.3H618.214C616.654 115.26 611.734 123.239 603.454 129.239C595.174 135.119 584.854 138.06 572.494 138.06C563.494 138.06 555.454 136.019 548.374 131.939C541.414 127.859 535.893 122.28 531.813 115.2C527.854 108 525.874 99.7799 525.874 90.54C525.874 81.1801 527.794 72.9599 531.634 65.8799C535.594 58.6799 541.054 53.04 548.014 48.96C554.974 44.88 562.954 42.8398 571.954 42.8398ZM661.269 42.8398C668.229 42.8398 674.349 44.1001 679.629 46.6201C685.029 49.14 689.229 52.6795 692.229 57.2393C695.229 61.7993 696.729 67.1398 696.729 73.2598H670.449C670.449 70.1398 669.549 67.6799 667.749 65.8799C665.949 63.9599 663.369 63 660.009 63C656.889 63 654.369 63.7799 652.449 65.3398C650.649 66.7798 649.749 68.6997 649.749 71.0996C649.749 74.9396 652.989 77.5795 659.469 79.0195L676.209 82.6201C683.649 84.1801 689.289 86.8798 693.129 90.7197C697.089 94.4397 699.069 99.8997 699.069 107.1C699.069 113.46 697.389 118.98 694.029 123.66C690.669 128.34 685.989 131.94 679.989 134.46C673.989 136.86 667.089 138.06 659.289 138.06C647.409 138.06 637.989 135.24 631.029 129.6C624.069 123.84 620.589 116.399 620.589 107.279H646.869C647.109 110.399 648.368 112.86 650.648 114.66C652.928 116.46 656.169 117.359 660.369 117.359C664.689 117.359 667.869 116.64 669.909 115.2C671.949 113.76 672.969 111.9 672.969 109.62C672.969 108.3 672.429 106.98 671.349 105.66C670.389 104.34 668.229 103.32 664.869 102.6L648.309 99C640.029 97.2 633.849 94.3193 629.769 90.3594C625.689 86.2794 623.648 80.2792 623.648 72.3594C623.648 66.1195 625.269 60.8395 628.509 56.5195C631.869 52.0796 636.369 48.7194 642.009 46.4395C647.649 44.0395 654.069 42.8399 661.269 42.8398ZM742.354 42.8398C749.313 42.8399 755.433 44.1002 760.713 46.6201C766.113 49.1401 770.313 52.6794 773.313 57.2393C776.313 61.7993 777.813 67.1398 777.813 73.2598H751.533C751.533 70.1398 750.633 67.6799 748.833 65.8799C747.033 63.9599 744.453 63 741.093 63C737.973 63.0001 735.453 63.7799 733.533 65.3398C731.733 66.7798 730.833 68.6997 730.833 71.0996C730.833 74.9396 734.074 77.5795 740.554 79.0195L757.293 82.6201C764.733 84.1801 770.373 86.8798 774.213 90.7197C778.173 94.4397 780.153 99.8997 780.153 107.1C780.153 113.46 778.473 118.98 775.113 123.66C771.753 128.34 767.073 131.94 761.073 134.46C755.073 136.86 748.173 138.06 740.373 138.06C728.493 138.06 719.073 135.24 712.113 129.6C705.153 123.84 701.673 116.399 701.673 107.279H727.953C728.193 110.399 729.453 112.86 731.733 114.66C734.013 116.46 737.253 117.359 741.453 117.359C745.773 117.359 748.953 116.64 750.993 115.2C753.033 113.76 754.054 111.9 754.054 109.62C754.054 108.3 753.513 106.98 752.434 105.66C751.474 104.34 749.313 103.32 745.953 102.6L729.394 99C721.114 97.2 714.934 94.3194 710.854 90.3594C706.774 86.2794 704.733 80.2794 704.733 72.3594C704.733 66.1196 706.353 60.8394 709.593 56.5195C712.953 52.0796 717.453 48.7195 723.093 46.4395C728.733 44.0395 735.154 42.8398 742.354 42.8398ZM66.0361 136.141C64.3661 136.55 62.6466 136.895 60.877 137.173L0.258789 102.176C0.11282 100.819 0.0275643 99.4322 0 98.0146L66.0361 136.141ZM146.576 45.7197H163.676V68.7598H146.576V135.72H118.855V68.7598H101.756V45.7197H118.855V17.8193H146.576V45.7197ZM377.336 78.1201L406.496 45.7197H441.235L407.396 81.3594L440.156 135.72H408.116L387.956 102.06L377.336 113.22V135.72H349.616V0H377.336V78.1201ZM75.5059 132.876C74.1513 133.496 72.7546 134.061 71.3154 134.57L6.27539 97.0195H13.3994L75.5059 132.876ZM83.2393 128.495C82.1298 129.276 80.9692 130.016 79.7559 130.711L47.5381 112.11C48.0576 112.129 48.5875 112.14 49.1279 112.14C50.9985 112.14 52.7584 112.042 54.4072 111.85L83.2393 128.495ZM50.9287 0C60.5285 4.9539e-05 68.8087 1.68009 75.7686 5.04004C82.7284 8.40002 88.0681 13.1399 91.7881 19.2598C95.6281 25.3798 97.5479 32.64 97.5479 41.04H68.5684C68.5684 36.36 66.948 32.6996 63.708 30.0596C60.468 27.2997 56.0882 25.9199 50.5684 25.9199C44.6884 25.9199 39.9486 27.1802 36.3486 29.7002C32.8687 32.2202 31.1279 35.6997 31.1279 40.1396C31.1279 44.2197 32.2082 47.34 34.3682 49.5C36.5281 51.6599 39.9482 53.2197 44.6279 54.1797L64.6084 58.3193C76.4884 60.7193 85.3084 64.9199 91.0684 70.9199C96.8283 76.7999 99.708 85.0202 99.708 95.5801C99.7079 104.1 97.6081 111.6 93.4082 118.08C91.5059 120.961 89.2451 123.544 86.6289 125.834L60.2637 110.612C61.9396 110.067 63.4482 109.377 64.7881 108.54C68.628 106.02 70.5478 102.66 70.5479 98.46C70.5479 94.74 69.588 91.8593 67.668 89.8193C65.868 87.7796 62.7481 86.34 58.3086 85.5L37.9688 81.3594C26.0889 78.9594 17.0887 74.3996 10.9688 67.6797C4.96875 60.9597 1.96875 52.1397 1.96875 41.2197C1.96875 33.1797 4.06855 26.0995 8.26855 19.9795C12.4685 13.7397 18.2281 8.87935 25.5479 5.39941C32.9879 1.79942 41.4487 0 50.9287 0ZM207.994 98.46C201.994 98.9399 197.734 99.9596 195.214 101.52C192.814 102.96 191.613 105.12 191.613 108C191.613 111.24 192.634 113.64 194.674 115.2C196.714 116.76 199.834 117.54 204.034 117.54C209.314 117.54 213.634 116.28 216.994 113.76C220.354 111.12 222.034 107.219 222.034 102.06V97.2002L207.994 98.46ZM28.9697 97.1631C28.9819 98.834 29.2069 100.373 29.6445 101.779L21.3994 97.0195H28.7207L28.9697 97.1631ZM572.134 65.3398C567.454 65.3398 563.613 66.24 560.613 68.04C557.734 69.84 555.574 72.6602 554.134 76.5C553.609 77.8563 553.181 79.3565 552.848 81H590.313C590.313 76.2002 588.694 72.4201 585.454 69.6602C582.214 66.7802 577.774 65.3399 572.134 65.3398Z" fill="black"/>
</svg>
