<svg width="220" height="200" viewBox="0 0 220 200" fill="none" xmlns="http://www.w3.org/2000/svg">
<path d="M0 0H220V200H111.91H0V0Z" fill="black"/>
<path d="M131.46 54.6804L180.469 15.19C184.213 12.1724 189.568 12.2184 193.26 15.2998C198.105 19.3431 198.09 26.7925 193.228 30.8155L132.637 80.9511C131.942 81.5258 130.949 81.5648 130.211 81.0462L88.0653 51.4111L66.3679 61.2189L130.604 88.1048C131.147 88.332 131.763 88.3086 132.287 88.0408L186.909 60.1292V88.3261C186.909 89.0788 186.487 89.7677 185.816 90.1089L129.86 118.564C129.345 118.826 128.742 118.853 128.206 118.637L30.2524 79.1599C29.4956 78.8549 29 78.1208 29 77.3049V52.7967C29 51.9632 29.5169 51.2171 30.2973 50.9242L91.8955 27.8083C92.5157 27.5756 93.2109 27.665 93.752 28.0472L131.46 54.6804Z" fill="white"/>
<path d="M129.807 128.397L33.7912 89.6105C32.4766 89.0795 31.0421 90.0471 31.0421 91.4649V116.261C31.0421 117.89 32.0298 119.356 33.5393 119.968L122.267 155.938L112.214 159.987C111.733 160.181 111.195 160.18 110.715 159.985L33.7941 128.774C32.479 128.241 31.0421 129.208 31.0421 130.628V151.377C31.0421 152.167 31.5066 152.882 32.2276 153.204L105.735 185.98C106.318 186.24 106.99 186.207 107.544 185.889L187.279 140.199C187.901 139.842 188.285 139.18 188.285 138.463V101.609C188.285 100.102 186.682 99.1366 185.35 99.8407L131.491 128.311C130.97 128.586 130.354 128.618 129.807 128.397Z" fill="white"/>
</svg>
