<?xml version="1.0" encoding="UTF-8"?><svg id="Layer_1" xmlns="http://www.w3.org/2000/svg" viewBox="0 0 438 117.33"><defs><style>.cls-1{fill:#231f20;}.cls-2{fill:none;}</style></defs><rect class="cls-2" width="400" height="100"/><path class="cls-1" d="M36.92,14.63c10.53,0,20.34,6.12,18.36,18l-.9,5.22h-15.3l.9-4.86c.72-3.69-1.17-5.22-3.33-5.22s-3.69,1.53-3.69,3.96c0,7.83,15.84,17.1,15.84,33.57,0,13.5-9.63,20.07-22.05,20.07-11.34,0-20.25-6.66-18.09-19.89l.72-4.23h15.48l-.9,4.86c-.72,4.23,1.17,6.3,3.69,6.12,2.61,0,4.32-1.8,4.32-4.68,0-8.55-15.75-18.54-15.75-33.66.09-13.5,9.27-19.26,20.7-19.26Z"/><path class="cls-1" d="M80.39,71.6c1.53,0,3.51-.27,5.22-.81l-2.7,12.78c-2.07.63-5.58,1.08-8.73,1.08-10.44,0-17.82-4.32-14.94-17.91l3.24-15.39h-5.13l2.7-12.6h5.13l2.7-12.6h17.55l-2.7,12.6h9.72l-2.7,12.6h-9.72l-3.15,14.85c-.81,3.69.36,5.4,3.51,5.4Z"/><path class="cls-1" d="M93.26,65.12c0-14.76,8.82-27.27,22.86-27.27,5.76,0,10.35,2.52,12.96,7.2l1.35-6.3h17.55l-9.54,45h-15.03l1.44-6.21c-3.51,4.32-8.37,7.11-14.13,7.11-10.44,0-17.46-7.83-17.46-19.53ZM119.18,52.79c-5.4,0-9,4.77-9,10.26,0,4.05,2.52,6.66,6.48,6.66,5.58,0,9.09-4.77,9.09-10.26,0-4.05-2.52-6.66-6.57-6.66Z"/><path class="cls-1" d="M182.81,58.01c-.27-3.33-2.79-5.4-6.3-5.4-5.4,0-8.82,4.86-8.82,10.35,0,4.23,2.43,6.93,6.39,6.93s7.2-2.79,8.19-6.39h16.56c-2.16,12.33-11.7,21.15-25.92,21.15-13.32,0-21.6-7.92-21.6-20.43,0-14.49,10.8-26.37,26.28-26.37,13.32,0,21.69,7.83,21.69,20.16h-16.47Z"/><path class="cls-1" d="M225.65,57.29l12.96-18.54h19.89l-16.74,21.42,7.83,23.58h-19.08l-5.49-23.13-4.95,23.13h-17.55l14.31-67.5h17.55l-8.73,41.04Z"/><path class="cls-1" d="M275.24,84.65c-11.52,0-20.07-5.76-20.07-15.75h15.12c0,3.51,2.43,5.31,5.67,5.31,2.97,0,4.86-1.08,4.86-3.15,0-6.03-20.52-2.79-20.52-17.28,0-10.53,8.64-15.93,21.15-15.93,11.25,0,19.17,6.66,19.17,15.3h-15.03c0-2.7-1.98-4.68-4.95-4.68-2.52,0-4.23.99-4.23,2.88,0,5.49,21.06,2.7,21.06,17.28,0,10.8-9.27,16.02-22.23,16.02Z"/><path class="cls-1" d="M321.5,64.76c.18,4.95,2.34,7.38,6.48,7.38,2.79,0,5.13-1.35,6.21-3.87h16.65c-3.42,10.17-11.88,16.38-24.21,16.38-13.14,0-21.33-7.92-21.33-20.43,0-14.49,10.71-26.37,26.01-26.37,13.23,0,21.33,7.92,21.33,20.43,0,2.16-.27,4.41-.72,6.48h-30.42ZM322.49,57.29h14.04c-.18-4.14-1.98-6.66-6.12-6.66-3.6,0-6.48,2.34-7.92,6.66Z"/><path class="cls-1" d="M383.42,71.6c1.53,0,3.51-.27,5.22-.81l-2.7,12.78c-2.07.63-5.58,1.08-8.73,1.08-10.44,0-17.82-4.32-14.94-17.91l3.24-15.39h-5.13l2.7-12.6h5.13l2.7-12.6h17.55l-2.7,12.6h9.72l-2.7,12.6h-9.72l-3.15,14.85c-.81,3.69.36,5.4,3.51,5.4Z"/><rect class="cls-2" x="438" y="113" width="0" height="4.33"/></svg>