<svg width="1186" height="345" viewBox="0 0 1186 345" fill="none" xmlns="http://www.w3.org/2000/svg">
<path d="M231.02 147.14C231.02 139.46 233 132.68 236.96 126.8C240.92 120.92 246.38 116.36 253.34 113.12C260.42 109.76 268.58 108.08 277.82 108.08C286.7 108.08 294.38 109.64 300.86 112.76C307.46 115.88 312.56 120.32 316.16 126.08C319.88 131.84 321.86 138.68 322.1 146.6H299.06C298.82 140.96 296.78 136.58 292.94 133.46C289.1 130.22 283.94 128.6 277.46 128.6C270.38 128.6 264.68 130.22 260.36 133.46C256.16 136.58 254.06 140.9 254.06 146.42C254.06 151.1 255.32 154.82 257.84 157.58C260.48 160.22 264.56 162.2 270.08 163.52L290.78 168.2C302.06 170.6 310.46 174.74 315.98 180.62C321.5 186.38 324.26 194.18 324.26 204.02C324.26 212.06 322.28 219.14 318.32 225.26C314.36 231.38 308.72 236.12 301.4 239.48C294.2 242.72 285.74 244.34 276.02 244.34C266.78 244.34 258.68 242.78 251.72 239.66C244.76 236.42 239.3 231.92 235.34 226.16C231.5 220.4 229.46 213.62 229.22 205.82H252.26C252.38 211.34 254.54 215.72 258.74 218.96C263.06 222.08 268.88 223.64 276.2 223.64C283.88 223.64 289.94 222.08 294.38 218.96C298.94 215.72 301.22 211.46 301.22 206.18C301.22 201.62 300.02 198.02 297.62 195.38C295.22 192.62 291.32 190.7 285.92 189.62L265.04 184.94C253.88 182.54 245.42 178.22 239.66 171.98C233.9 165.62 231.02 157.34 231.02 147.14ZM384.386 121.4V242H361.346V121.4H384.386ZM322.826 131.66V110.42H422.906V131.66H322.826ZM430.9 242H407.14L454.66 110.42H478.24L525.76 242H501.46L490.84 211.58H441.7L430.9 242ZM463.48 149.66L448.36 192.14H484.18L469.06 149.66C468.58 147.86 468.04 146.06 467.44 144.26C466.84 142.46 466.48 140.9 466.36 139.58C466.12 140.78 465.7 142.34 465.1 144.26C464.62 146.06 464.08 147.86 463.48 149.66ZM582.552 244.16C569.712 244.16 558.552 241.4 549.072 235.88C539.712 230.24 532.392 222.38 527.112 212.3C521.952 202.1 519.372 190.1 519.372 176.3C519.372 162.62 522.012 150.68 527.292 140.48C532.692 130.28 540.252 122.36 549.972 116.72C559.692 111.08 570.912 108.26 583.632 108.26C594.072 108.26 603.432 110.18 611.712 114.02C619.992 117.86 626.832 123.26 632.232 130.22C637.632 137.06 641.052 145.22 642.492 154.7H618.192C615.912 147.02 611.652 141.08 605.412 136.88C599.292 132.56 591.792 130.4 582.912 130.4C574.992 130.4 568.032 132.26 562.032 135.98C556.152 139.7 551.592 144.98 548.352 151.82C545.112 158.66 543.492 166.82 543.492 176.3C543.492 185.42 545.112 193.46 548.352 200.42C551.592 207.26 556.152 212.6 562.032 216.44C568.032 220.16 574.992 222.02 582.912 222.02C591.912 222.02 599.592 219.86 605.952 215.54C612.432 211.22 616.752 205.4 618.912 198.08H642.852C641.172 207.2 637.512 215.24 631.872 222.2C626.352 229.16 619.332 234.56 610.812 238.4C602.412 242.24 592.992 244.16 582.552 244.16ZM758.014 110.42L672.154 220.94V186.56L730.834 110.42H758.014ZM677.554 110.42V242H654.514V110.42H677.554ZM698.434 184.4L713.194 164.6L758.554 242H731.914L698.434 184.4ZM813.106 244.16C800.266 244.16 789.106 241.4 779.626 235.88C770.266 230.24 762.946 222.38 757.666 212.3C752.506 202.1 749.926 190.1 749.926 176.3C749.926 162.62 752.566 150.68 757.846 140.48C763.246 130.28 770.806 122.36 780.526 116.72C790.246 111.08 801.466 108.26 814.186 108.26C824.626 108.26 833.986 110.18 842.266 114.02C850.546 117.86 857.386 123.26 862.786 130.22C868.186 137.06 871.606 145.22 873.046 154.7H848.746C846.466 147.02 842.206 141.08 835.966 136.88C829.846 132.56 822.346 130.4 813.466 130.4C805.546 130.4 798.586 132.26 792.586 135.98C786.706 139.7 782.146 144.98 778.906 151.82C775.666 158.66 774.046 166.82 774.046 176.3C774.046 185.42 775.666 193.46 778.906 200.42C782.146 207.26 786.706 212.6 792.586 216.44C798.586 220.16 805.546 222.02 813.466 222.02C822.466 222.02 830.146 219.86 836.506 215.54C842.986 211.22 847.306 205.4 849.466 198.08H873.406C871.726 207.2 868.066 215.24 862.426 222.2C856.906 229.16 849.886 234.56 841.366 238.4C832.966 242.24 823.546 244.16 813.106 244.16ZM966.788 242H885.068V110.42H966.788V131.66H900.008L908.108 124.28V165.5H960.668V185.84H908.108V228.14L900.008 220.76H966.788V242ZM975.032 147.14C975.032 139.46 977.012 132.68 980.972 126.8C984.932 120.92 990.392 116.36 997.352 113.12C1004.43 109.76 1012.59 108.08 1021.83 108.08C1030.71 108.08 1038.39 109.64 1044.87 112.76C1051.47 115.88 1056.57 120.32 1060.17 126.08C1063.89 131.84 1065.87 138.68 1066.11 146.6H1043.07C1042.83 140.96 1040.79 136.58 1036.95 133.46C1033.11 130.22 1027.95 128.6 1021.47 128.6C1014.39 128.6 1008.69 130.22 1004.37 133.46C1000.17 136.58 998.072 140.9 998.072 146.42C998.072 151.1 999.332 154.82 1001.85 157.58C1004.49 160.22 1008.57 162.2 1014.09 163.52L1034.79 168.2C1046.07 170.6 1054.47 174.74 1059.99 180.62C1065.51 186.38 1068.27 194.18 1068.27 204.02C1068.27 212.06 1066.29 219.14 1062.33 225.26C1058.37 231.38 1052.73 236.12 1045.41 239.48C1038.21 242.72 1029.75 244.34 1020.03 244.34C1010.79 244.34 1002.69 242.78 995.732 239.66C988.772 236.42 983.312 231.92 979.352 226.16C975.512 220.4 973.472 213.62 973.232 205.82H996.272C996.392 211.34 998.552 215.72 1002.75 218.96C1007.07 222.08 1012.89 223.64 1020.21 223.64C1027.89 223.64 1033.95 222.08 1038.39 218.96C1042.95 215.72 1045.23 211.46 1045.23 206.18C1045.23 201.62 1044.03 198.02 1041.63 195.38C1039.23 192.62 1035.33 190.7 1029.93 189.62L1009.05 184.94C997.892 182.54 989.432 178.22 983.672 171.98C977.912 165.62 975.032 157.34 975.032 147.14ZM1073.79 147.14C1073.79 139.46 1075.77 132.68 1079.73 126.8C1083.69 120.92 1089.15 116.36 1096.11 113.12C1103.19 109.76 1111.35 108.08 1120.59 108.08C1129.47 108.08 1137.15 109.64 1143.63 112.76C1150.23 115.88 1155.33 120.32 1158.93 126.08C1162.65 131.84 1164.63 138.68 1164.87 146.6H1141.83C1141.59 140.96 1139.55 136.58 1135.71 133.46C1131.87 130.22 1126.71 128.6 1120.23 128.6C1113.15 128.6 1107.45 130.22 1103.13 133.46C1098.93 136.58 1096.83 140.9 1096.83 146.42C1096.83 151.1 1098.09 154.82 1100.61 157.58C1103.25 160.22 1107.33 162.2 1112.85 163.52L1133.55 168.2C1144.83 170.6 1153.23 174.74 1158.75 180.62C1164.27 186.38 1167.03 194.18 1167.03 204.02C1167.03 212.06 1165.05 219.14 1161.09 225.26C1157.13 231.38 1151.49 236.12 1144.17 239.48C1136.97 242.72 1128.51 244.34 1118.79 244.34C1109.55 244.34 1101.45 242.78 1094.49 239.66C1087.53 236.42 1082.07 231.92 1078.11 226.16C1074.27 220.4 1072.23 213.62 1071.99 205.82H1095.03C1095.15 211.34 1097.31 215.72 1101.51 218.96C1105.83 222.08 1111.65 223.64 1118.97 223.64C1126.65 223.64 1132.71 222.08 1137.15 218.96C1141.71 215.72 1143.99 211.46 1143.99 206.18C1143.99 201.62 1142.79 198.02 1140.39 195.38C1137.99 192.62 1134.09 190.7 1128.69 189.62L1107.81 184.94C1096.65 182.54 1088.19 178.22 1082.43 171.98C1076.67 165.62 1073.79 157.34 1073.79 147.14Z" fill="white"/>
<path d="M102.46 129.68L151.469 90.19C155.213 87.1724 160.568 87.2184 164.26 90.2998C169.105 94.3431 169.09 101.792 164.228 105.815L103.637 155.951C102.942 156.526 101.949 156.565 101.211 156.046L59.0653 126.411L37.3679 136.219L101.604 163.105C102.147 163.332 102.763 163.309 103.287 163.041L157.909 135.129V163.326C157.909 164.079 157.487 164.768 156.816 165.109L100.86 193.564C100.345 193.826 99.7419 193.853 99.2059 193.637L1.2524 154.16C0.495631 153.855 0 153.121 0 152.305V127.797C0 126.963 0.516935 126.217 1.29731 125.924L62.8955 102.808C63.5157 102.576 64.2109 102.665 64.752 103.047L102.46 129.68Z" fill="white"/>
<path d="M100.807 203.397L4.79122 164.611C3.47659 164.079 2.04211 165.047 2.04211 166.465V191.261C2.04211 192.89 3.0298 194.356 4.53932 194.968L93.267 230.938L83.214 234.987C82.7329 235.181 82.1954 235.18 81.7148 234.985L4.79408 203.774C3.47904 203.241 2.04211 204.208 2.04211 205.628V226.377C2.04211 227.167 2.50656 227.882 3.22762 228.204L76.7351 260.98C77.3181 261.24 77.9901 261.207 78.5439 260.889L158.279 215.199C158.901 214.842 159.285 214.18 159.285 213.463V176.609C159.285 175.102 157.682 174.137 156.35 174.841L102.491 203.311C101.97 203.586 101.354 203.618 100.807 203.397Z" fill="white"/>
</svg>
