<svg width="939" height="137" viewBox="0 0 939 137" fill="none" xmlns="http://www.w3.org/2000/svg">
<path d="M2.02 39.14C2.02 31.46 4 24.68 7.96 18.8C11.92 12.92 17.38 8.36 24.34 5.12C31.42 1.76 39.58 0.0799968 48.82 0.0799968C57.7 0.0799968 65.38 1.63999 71.86 4.75999C78.46 7.87999 83.56 12.32 87.16 18.08C90.88 23.84 92.86 30.68 93.1 38.6H70.06C69.82 32.96 67.78 28.58 63.94 25.46C60.1 22.22 54.94 20.6 48.46 20.6C41.38 20.6 35.68 22.22 31.36 25.46C27.16 28.58 25.06 32.9 25.06 38.42C25.06 43.1 26.32 46.82 28.84 49.58C31.48 52.22 35.56 54.2 41.08 55.52L61.78 60.2C73.06 62.6 81.46 66.74 86.98 72.62C92.5 78.38 95.26 86.18 95.26 96.02C95.26 104.06 93.28 111.14 89.32 117.26C85.36 123.38 79.72 128.12 72.4 131.48C65.2 134.72 56.74 136.34 47.02 136.34C37.78 136.34 29.68 134.78 22.72 131.66C15.76 128.42 10.3 123.92 6.34 118.16C2.5 112.4 0.46 105.62 0.22 97.82H23.26C23.38 103.34 25.54 107.72 29.74 110.96C34.06 114.08 39.88 115.64 47.2 115.64C54.88 115.64 60.94 114.08 65.38 110.96C69.94 107.72 72.22 103.46 72.22 98.18C72.22 93.62 71.02 90.02 68.62 87.38C66.22 84.62 62.32 82.7 56.92 81.62L36.04 76.94C24.88 74.54 16.42 70.22 10.66 63.98C4.9 57.62 2.02 49.34 2.02 39.14ZM155.386 13.4V134H132.346V13.4H155.386ZM93.8256 23.66V2.42H193.906V23.66H93.8256ZM201.9 134H178.14L225.66 2.42H249.24L296.76 134H272.46L261.84 103.58H212.7L201.9 134ZM234.48 41.66L219.36 84.14H255.18L240.06 41.66C239.58 39.86 239.04 38.06 238.44 36.26C237.84 34.46 237.48 32.9 237.36 31.58C237.12 32.78 236.7 34.34 236.1 36.26C235.62 38.06 235.08 39.86 234.48 41.66ZM353.552 136.16C340.712 136.16 329.552 133.4 320.072 127.88C310.712 122.24 303.392 114.38 298.112 104.3C292.952 94.1 290.372 82.1 290.372 68.3C290.372 54.62 293.012 42.68 298.292 32.48C303.692 22.28 311.252 14.36 320.972 8.71999C330.692 3.07999 341.912 0.259995 354.632 0.259995C365.072 0.259995 374.432 2.17999 382.712 6.02C390.992 9.86 397.832 15.26 403.232 22.22C408.632 29.06 412.052 37.22 413.492 46.7H389.192C386.912 39.02 382.652 33.08 376.412 28.88C370.292 24.56 362.792 22.4 353.912 22.4C345.992 22.4 339.032 24.26 333.032 27.98C327.152 31.7 322.592 36.98 319.352 43.82C316.112 50.66 314.492 58.82 314.492 68.3C314.492 77.42 316.112 85.46 319.352 92.42C322.592 99.26 327.152 104.6 333.032 108.44C339.032 112.16 345.992 114.02 353.912 114.02C362.912 114.02 370.592 111.86 376.952 107.54C383.432 103.22 387.752 97.4 389.912 90.08H413.852C412.172 99.2 408.512 107.24 402.872 114.2C397.352 121.16 390.332 126.56 381.812 130.4C373.412 134.24 363.992 136.16 353.552 136.16ZM529.014 2.42L443.154 112.94V78.56L501.834 2.42H529.014ZM448.554 2.42V134H425.514V2.42H448.554ZM469.434 76.4L484.194 56.6L529.554 134H502.914L469.434 76.4ZM584.106 136.16C571.266 136.16 560.106 133.4 550.626 127.88C541.266 122.24 533.946 114.38 528.666 104.3C523.506 94.1 520.926 82.1 520.926 68.3C520.926 54.62 523.566 42.68 528.846 32.48C534.246 22.28 541.806 14.36 551.526 8.71999C561.246 3.07999 572.466 0.259995 585.186 0.259995C595.626 0.259995 604.986 2.17999 613.266 6.02C621.546 9.86 628.386 15.26 633.786 22.22C639.186 29.06 642.606 37.22 644.046 46.7H619.746C617.466 39.02 613.206 33.08 606.966 28.88C600.846 24.56 593.346 22.4 584.466 22.4C576.546 22.4 569.586 24.26 563.586 27.98C557.706 31.7 553.146 36.98 549.906 43.82C546.666 50.66 545.046 58.82 545.046 68.3C545.046 77.42 546.666 85.46 549.906 92.42C553.146 99.26 557.706 104.6 563.586 108.44C569.586 112.16 576.546 114.02 584.466 114.02C593.466 114.02 601.146 111.86 607.506 107.54C613.986 103.22 618.306 97.4 620.466 90.08H644.406C642.726 99.2 639.066 107.24 633.426 114.2C627.906 121.16 620.886 126.56 612.366 130.4C603.966 134.24 594.546 136.16 584.106 136.16ZM737.788 134H656.068V2.42H737.788V23.66H671.008L679.108 16.28V57.5H731.668V77.84H679.108V120.14L671.008 112.76H737.788V134ZM746.032 39.14C746.032 31.46 748.012 24.68 751.972 18.8C755.932 12.92 761.392 8.36 768.352 5.12C775.432 1.76 783.592 0.0799968 792.832 0.0799968C801.712 0.0799968 809.392 1.63999 815.872 4.75999C822.472 7.87999 827.572 12.32 831.172 18.08C834.892 23.84 836.872 30.68 837.112 38.6H814.072C813.832 32.96 811.792 28.58 807.952 25.46C804.112 22.22 798.952 20.6 792.472 20.6C785.392 20.6 779.692 22.22 775.372 25.46C771.172 28.58 769.072 32.9 769.072 38.42C769.072 43.1 770.332 46.82 772.852 49.58C775.492 52.22 779.572 54.2 785.092 55.52L805.792 60.2C817.072 62.6 825.472 66.74 830.992 72.62C836.512 78.38 839.272 86.18 839.272 96.02C839.272 104.06 837.292 111.14 833.332 117.26C829.372 123.38 823.732 128.12 816.412 131.48C809.212 134.72 800.752 136.34 791.032 136.34C781.792 136.34 773.692 134.78 766.732 131.66C759.772 128.42 754.312 123.92 750.352 118.16C746.512 112.4 744.472 105.62 744.232 97.82H767.272C767.392 103.34 769.552 107.72 773.752 110.96C778.072 114.08 783.892 115.64 791.212 115.64C798.892 115.64 804.952 114.08 809.392 110.96C813.952 107.72 816.232 103.46 816.232 98.18C816.232 93.62 815.032 90.02 812.632 87.38C810.232 84.62 806.332 82.7 800.932 81.62L780.052 76.94C768.892 74.54 760.432 70.22 754.672 63.98C748.912 57.62 746.032 49.34 746.032 39.14ZM844.786 39.14C844.786 31.46 846.766 24.68 850.726 18.8C854.686 12.92 860.146 8.36 867.106 5.12C874.186 1.76 882.346 0.0799968 891.586 0.0799968C900.466 0.0799968 908.146 1.63999 914.626 4.75999C921.226 7.87999 926.326 12.32 929.926 18.08C933.646 23.84 935.626 30.68 935.866 38.6H912.826C912.586 32.96 910.546 28.58 906.706 25.46C902.866 22.22 897.706 20.6 891.226 20.6C884.146 20.6 878.446 22.22 874.126 25.46C869.926 28.58 867.826 32.9 867.826 38.42C867.826 43.1 869.086 46.82 871.606 49.58C874.246 52.22 878.326 54.2 883.846 55.52L904.546 60.2C915.826 62.6 924.226 66.74 929.746 72.62C935.266 78.38 938.026 86.18 938.026 96.02C938.026 104.06 936.046 111.14 932.086 117.26C928.126 123.38 922.486 128.12 915.166 131.48C907.966 134.72 899.506 136.34 889.786 136.34C880.546 136.34 872.446 134.78 865.486 131.66C858.526 128.42 853.066 123.92 849.106 118.16C845.266 112.4 843.226 105.62 842.986 97.82H866.026C866.146 103.34 868.306 107.72 872.506 110.96C876.826 114.08 882.646 115.64 889.966 115.64C897.646 115.64 903.706 114.08 908.146 110.96C912.706 107.72 914.986 103.46 914.986 98.18C914.986 93.62 913.786 90.02 911.386 87.38C908.986 84.62 905.086 82.7 899.686 81.62L878.806 76.94C867.646 74.54 859.186 70.22 853.426 63.98C847.666 57.62 844.786 49.34 844.786 39.14Z" fill="black"/>
</svg>
