<svg width="174" height="177" viewBox="0 0 174 177" fill="none" xmlns="http://www.w3.org/2000/svg">
<path d="M102.46 44.6804L151.469 5.18997C155.213 2.17243 160.568 2.21841 164.26 5.29981C169.105 9.34315 169.09 16.7925 164.228 20.8155L103.637 70.9511C102.942 71.5258 101.949 71.5648 101.211 71.0462L59.0653 41.4111L37.3679 51.2189L101.604 78.1048C102.147 78.332 102.763 78.3086 103.287 78.0408L157.909 50.1292V78.3261C157.909 79.0788 157.487 79.7677 156.816 80.1089L100.86 108.564C100.345 108.826 99.7419 108.853 99.2059 108.637L1.2524 69.1599C0.495631 68.8549 0 68.1208 0 67.3049V42.7967C0 41.9632 0.516935 41.2171 1.29731 40.9242L62.8955 17.8083C63.5157 17.5756 64.2109 17.665 64.752 18.0472L102.46 44.6804Z" fill="black"/>
<path d="M100.807 118.397L4.79122 79.6105C3.47659 79.0795 2.04211 80.0471 2.04211 81.4649V106.261C2.04211 107.89 3.0298 109.356 4.53932 109.968L93.267 145.938L83.214 149.987C82.7329 150.181 82.1954 150.18 81.7148 149.985L4.79408 118.774C3.47904 118.241 2.04211 119.208 2.04211 120.628V141.377C2.04211 142.167 2.50656 142.882 3.22762 143.204L76.7351 175.98C77.3181 176.24 77.9901 176.207 78.5439 175.889L158.279 130.199C158.901 129.842 159.285 129.18 159.285 128.463V91.6089C159.285 90.1023 157.682 89.1366 156.35 89.8407L102.491 118.311C101.97 118.586 101.354 118.618 100.807 118.397Z" fill="black"/>
</svg>
